<svg xmlns="http://www.w3.org/2000/svg" viewBox="0 0 92 62" width="47" height="32">
	<defs>
		<clipPath clipPathUnits="userSpaceOnUse" id="cp1">
			<path d="M0 0L92 0L92 62L0 62Z" />
		</clipPath>
	</defs>
	<style>
		tspan { white-space:pre }
		.shp0 { fill: none;stroke: #5b5f5c;stroke-width: 4 } 
		.shp1 { fill: none;stroke: #5b5f5c;stroke-linecap:round;stroke-width: 4 } 
	</style>
	<g id="Page 1" clip-path="url(#cp1)">
		<path id="Path 1" class="shp0" d="M20.35 53.04C20.35 56.88 17.23 60 13.39 60C9.54 60 6.42 56.88 6.42 53.04C6.42 49.19 9.54 46.07 13.39 46.07C17.23 46.07 20.35 49.19 20.35 53.04ZM15.6 52.81C15.6 54.03 14.61 55.02 13.39 55.02C12.17 55.02 11.18 54.03 11.18 52.81C11.18 51.59 12.17 50.6 13.39 50.6C14.61 50.6 15.6 51.59 15.6 52.81ZM35.1 53.04C35.1 56.88 31.98 60 28.14 60C24.29 60 21.17 56.88 21.17 53.04C21.17 49.19 24.29 46.07 28.14 46.07C31.98 46.07 35.1 49.19 35.1 53.04ZM30.35 52.81C30.35 54.03 29.36 55.02 28.14 55.02C26.91 55.02 25.92 54.03 25.92 52.81C25.92 51.59 26.91 50.6 28.14 50.6C29.36 50.6 30.35 51.59 30.35 52.81ZM81.31 53.04C81.31 56.88 78.19 60 74.35 60C70.5 60 67.38 56.88 67.38 53.04C67.38 49.19 70.5 46.07 74.35 46.07C78.19 46.07 81.31 49.19 81.31 53.04ZM76.56 52.81C76.56 54.03 75.57 55.02 74.35 55.02C73.12 55.02 72.13 54.03 72.13 52.81C72.13 51.59 73.12 50.6 74.35 50.6C75.57 50.6 76.56 51.59 76.56 52.81ZM67.38 52.34L35.51 52.34M53.66 44.64L46.32 44.64L46.32 27.51L53.66 27.51L53.66 44.64Z" />
		<path id="Path 2" class="shp1" d="M53.66 1.83L53.66 44.64M43.33 12.36L50.07 19.1L50.07 27.31M18.39 44.64L29.69 38.45M2 44.64L61.61 44.64L65.37 42.85C71.13 40.12 77.94 40.78 83.07 44.58L86.4 47.04C87.02 48.28 88.68 48.53 89.67 47.55L89.67 41.16C89.67 39.53 88.35 38.21 86.72 38.21L86.72 33.13L87.07 32.91C88.68 31.93 89.67 30.17 89.67 28.28L89.67 11.87C89.69 8.41 86.89 5.6 83.44 5.6L80.35 5.6L60.05 5.6C56.45 5.6 53.54 8.51 53.54 12.11L53.54 44.64" />
		<path id="Path 3" class="shp0" d="M89.67 22.37L77.68 22.37L74.35 19.98L69.94 19.98L69.94 42.1M68.41 5.6L68.41 19.98M73.2 5.6L73.2 40.68M57.42 30.73L56.79 30.73L56.79 25.89L62.26 25.89C62.26 28.56 60.09 30.73 57.42 30.73ZM56.24 34.66L61.89 34.66M56.24 38.6L61.89 38.6" />
		<path id="Path 4" class="shp1" d="M89.67 26.87L81.31 26.87M89.67 30.3L84.63 30.3M57.96 12.36L67.38 12.36M56.79 16.41L67.38 16.41" />
	</g>
</svg>